<?xml version="1.0" standalone="no"?>
<!DOCTYPE svg PUBLIC "-//W3C//DTD SVG 20010904//EN"
 "http://www.w3.org/TR/2001/REC-SVG-20010904/DTD/svg10.dtd">
<svg version="1.0" xmlns="http://www.w3.org/2000/svg"
 width="160.000000pt" height="160.000000pt" viewBox="0 0 160.000000 160.000000"
 preserveAspectRatio="xMidYMid meet">
<metadata>
Created by potrace 1.14, written by Peter Selinger 2001-2017
</metadata>
<g transform="translate(0.000000,160.000000) scale(0.100000,-0.100000)"
fill="#000000" stroke="none">
<path d="M685 1591 c-187 -31 -336 -111 -468 -251 -240 -255 -283 -641 -105
-945 53 -91 192 -229 283 -283 198 -117 438 -141 661 -67 120 40 207 96 309
199 105 107 161 198 201 331 23 78 27 108 27 220 1 139 -12 205 -60 320 -88
211 -295 391 -523 455 -84 23 -246 34 -325 21z m290 -106 c193 -49 368 -191
456 -370 56 -115 73 -190 72 -320 -1 -201 -64 -349 -212 -496 -140 -138 -291
-202 -486 -203 -124 0 -217 22 -325 78 -430 222 -519 782 -178 1125 177 177
432 248 673 186z"/>
<path d="M396 975 c-19 -20 -21 -49 -3 -63 7 -6 40 -15 74 -21 154 -25 261
-133 282 -286 6 -38 16 -72 23 -76 23 -15 47 -9 63 15 14 21 15 33 5 88 -35
192 -177 326 -376 353 -41 5 -54 3 -68 -10z"/>
<path d="M1114 980 c-65 -10 -155 -50 -210 -96 l-43 -34 22 -44 22 -44 40 38
c53 51 109 78 186 92 71 13 89 22 89 47 -1 40 -30 52 -106 41z"/>
</g>
</svg>
